PathFileType	4	(X/Y/Z)	TVC_58_Cal_02_0_static_RCNL2025.trc
DataRate	CameraRate	NumFrames	NumMarkers	Units	OrigDataRate	OrigDataStartFrame	OrigNumFrames
100	100	9	27	mm	100	77	102
Frame#	Time	R_Shoulder			L_Shoulder			C7			J_Notch			R_Elbow			L_Elbow			R_Wrist			L_Wrist			R_Asis			L_Asis			R_Psis			L_Psis			Sacral			Thoracic			Sternum			R_Thigh_Lateral			R_Knee_Lateral			R_Shank_Lateral			R_Ankle_Lateral			R_Heel			R_Toe			L_Thigh_Lateral			L_Knee_Lateral			L_Shank_Lateral			L_Ankle_Lateral			L_Heel			L_Toe		
		X1	Y1	Z1	X2	Y2	Z2	X3	Y3	Z3	X4	Y4	Z4	X5	Y5	Z5	X6	Y6	Z6	X7	Y7	Z7	X8	Y8	Z8	X9	Y9	Z9	X10	Y10	Z10	X11	Y11	Z11	X12	Y12	Z12	X13	Y13	Z13	X14	Y14	Z14	X15	Y15	Z15	X16	Y16	Z16	X17	Y17	Z17	X18	Y18	Z18	X19	Y19	Z19	X20	Y20	Z20	X21	Y21	Z21	X22	Y22	Z22	X23	Y23	Z23	X24	Y24	Z24	X25	Y25	Z25	X26	Y26	Z26	X27	Y27	Z27
77	0.76000000	-285.013489	1354.245972	-24.706659	-273.704620	1361.278442	-379.655701	-341.589966	1425.492798	-210.933792	-192.162308	1331.819824	-200.465042	-302.156708	1044.088989	59.062634	-324.106842	1051.753906	-453.196289	-217.591316	806.215790	92.732971	-265.789070	811.528168	-505.742416	-177.841309	909.275879	-57.357269	-164.158783	907.845825	-363.520264	-394.222229	964.411377	-148.598007	-395.970154	957.429321	-260.268860	-395.096191	960.920349	-204.433434	-376.984894	1118.667847	-207.861099	-85.246864	1083.980835	-208.649857	-226.146332	704.466492	34.197128	-235.354401	469.788757	-47.311840	-276.814087	271.966064	-1.272011	-308.433319	70.299179	-97.565063	-356.038208	61.292686	-155.987091	-178.885269	46.483135	-117.899101	-264.187225	676.320984	-444.715729	-233.334503	469.633057	-343.295410	-274.147980	287.046051	-403.217377	-322.628510	65.306831	-315.140533	-363.151306	57.856213	-261.523590	-184.245316	44.591248	-303.712372
78	0.77000000	-285.074768	1354.220947	-24.674946	-273.814941	1361.211914	-379.640411	-341.613861	1425.454224	-210.862305	-192.174820	1331.903687	-200.509048	-302.100677	1044.112549	59.019001	-324.178192	1051.720093	-453.143738	-217.535110	806.225128	92.734440	-265.715401	811.563141	-505.750229	-178.023727	909.212708	-57.291000	-164.135529	907.873596	-363.476196	-394.125275	964.288208	-148.539642	-395.875275	957.353821	-260.255615	-395.000275	960.821014	-204.397629	-377.059601	1118.601074	-207.775955	-85.245316	1083.994263	-208.669327	-226.039246	704.478821	34.290340	-235.196960	469.745544	-47.321793	-276.800354	271.881958	-1.296917	-308.428589	70.288086	-97.559204	-356.086334	61.255844	-156.021332	-178.906570	46.401863	-117.801201	-264.086395	676.305176	-444.688354	-233.346512	469.600525	-343.326141	-273.945648	286.795990	-403.062012	-322.654388	65.322975	-315.129395	-362.931702	57.574673	-261.564178	-184.219116	44.577549	-303.699615
79	0.78000000	-284.545044	1354.016846	-25.096067	-273.853973	1361.167725	-379.700745	-341.750702	1425.431030	-210.871460	-192.159363	1331.917847	-200.517380	-301.922546	1044.048950	58.999447	-324.260406	1051.675537	-453.114014	-217.395523	806.232391	92.706150	-265.823280	811.471130	-505.668304	-178.009079	909.172302	-57.268303	-164.135254	907.846191	-363.556641	-393.992889	964.350098	-148.486023	-395.788483	957.093506	-260.132660	-394.890686	960.721802	-204.309341	-377.030640	1118.561890	-207.692535	-85.070023	1084.020264	-208.733414	-225.924164	704.448547	34.155746	-235.168152	469.720978	-47.346760	-276.782074	271.829926	-1.288765	-308.430939	70.291985	-97.560249	-356.060272	61.246456	-156.015594	-178.975098	46.471088	-117.829147	-264.108734	676.273254	-444.655792	-233.311661	469.559570	-343.246643	-273.807587	286.703491	-402.957153	-322.664307	65.308090	-315.097778	-363.047119	57.771461	-261.565399	-184.265274	44.557884	-303.743439
80	0.79000000	-284.928345	1354.243286	-24.744118	-274.008636	1361.195068	-379.667053	-341.769135	1425.396729	-210.858353	-192.202667	1331.894287	-200.614395	-301.891998	1044.053467	58.984604	-324.339417	1051.666626	-453.058868	-217.339165	806.242645	92.736431	-265.817520	811.455597	-505.640717	-177.751938	909.234192	-57.225502	-164.067276	907.825134	-363.506500	-393.923981	964.344482	-148.430023	-395.826813	957.113464	-260.069061	-394.875397	960.728973	-204.249542	-377.003815	1118.504883	-207.712219	-85.013390	1084.049561	-208.724731	-225.797470	704.434814	34.199398	-235.107925	469.681488	-47.396709	-276.687469	271.864655	-1.264065	-308.401794	70.317093	-97.583076	-356.132690	61.322262	-156.029907	-178.904099	46.403767	-117.814705	-264.116608	676.299377	-444.655029	-233.271652	469.571594	-343.260956	-274.175934	287.076996	-403.186279	-322.694489	65.303970	-315.052521	-363.153046	57.924194	-261.530731	-184.230026	44.579670	-303.726135
81	0.80000000	-285.013611	1354.291992	-24.710230	-274.010590	1361.247070	-379.672211	-341.737701	1425.377808	-210.878998	-192.192963	1331.936890	-200.629425	-301.805206	1044.061890	59.035229	-324.394257	1051.666992	-453.001709	-217.244156	806.269135	92.646042	-265.682022	811.480927	-505.622574	-177.470322	909.284607	-57.136909	-164.110748	907.828613	-363.554657	-393.861755	964.352783	-148.370605	-395.793152	957.086670	-259.997223	-394.827454	960.719727	-204.183914	-376.930725	1118.439941	-207.740143	-85.027252	1084.018066	-208.769073	-225.748795	704.420898	34.205433	-235.098282	469.748230	-47.386158	-276.674133	271.814545	-1.329572	-308.387634	70.309227	-97.585175	-356.147797	61.335430	-155.999008	-178.875961	46.572811	-117.891609	-264.104919	676.297119	-444.623871	-233.273651	469.577515	-343.274597	-273.978546	286.878998	-403.042419	-322.650269	65.305840	-315.106293	-363.166656	57.957245	-261.514709	-184.192078	44.572319	-303.688080
82	0.81000000	-284.937653	1354.301514	-24.681696	-273.998444	1361.225586	-379.711700	-341.807068	1425.340332	-210.814163	-192.202805	1331.936157	-200.624191	-301.793274	1044.100952	59.046627	-324.414612	1051.591919	-452.733795	-217.120667	806.264465	92.650906	-265.777229	811.411285	-505.510040	-177.359940	909.259033	-57.207016	-164.068039	907.928894	-363.615112	-393.796600	964.340881	-148.313843	-395.692596	957.111755	-259.983887	-394.744598	960.726318	-204.148865	-376.931580	1118.457642	-207.621490	-84.964165	1083.918823	-208.768219	-225.722885	704.451904	34.261364	-235.062180	469.772308	-47.402275	-276.673615	271.891327	-1.327560	-308.311279	70.310905	-97.654694	-356.147400	61.390480	-156.030396	-178.917252	46.541515	-117.884308	-264.103455	676.361938	-444.660522	-233.282562	469.591095	-343.280273	-273.889404	286.860748	-403.024933	-322.583527	65.340393	-315.101318	-363.060577	57.884842	-261.578644	-184.202515	44.611942	-303.698761
83	0.82000000	-284.817291	1354.351196	-24.717793	-274.046722	1361.213135	-379.732941	-341.817291	1425.359741	-210.838730	-192.327179	1331.855103	-200.705276	-301.825439	1044.186035	59.055645	-324.489594	1051.586182	-452.675781	-217.004044	806.285583	92.662434	-265.803635	811.270416	-505.521271	-177.287415	909.235779	-57.321598	-164.071869	907.928345	-363.663147	-393.716675	964.343750	-148.320129	-395.705597	957.080139	-259.914093	-394.711136	960.711945	-204.117111	-376.865967	1118.445435	-207.648254	-84.853973	1084.055908	-208.779907	-225.667267	704.398193	34.236671	-235.048416	469.735748	-47.412518	-276.712006	271.858917	-1.334554	-308.359863	70.339912	-97.607803	-356.088013	61.339485	-155.955841	-178.968048	46.481827	-117.838928	-264.136108	676.326233	-444.582642	-233.335464	469.632202	-343.301941	-273.792847	286.853912	-403.039673	-322.679626	65.366791	-315.085449	-363.055298	57.915451	-261.559937	-184.242020	44.644142	-303.675903
84	0.83000000	-284.851532	1354.349487	-24.737476	-274.056885	1361.215332	-379.749390	-341.812653	1425.356445	-210.845551	-192.226608	1331.925049	-200.684402	-301.712646	1044.196411	59.077946	-324.489288	1051.559692	-452.672607	-216.917824	806.295074	92.610397	-265.759560	811.232330	-505.428589	-177.041962	909.332031	-57.210373	-164.062637	907.913147	-363.692444	-393.645111	964.346008	-148.271393	-395.726776	957.322205	-260.004211	-394.685944	960.834106	-204.137802	-376.852203	1118.455688	-207.659348	-84.745422	1084.078369	-208.880341	-225.524597	704.378540	34.189697	-235.045502	469.734161	-47.420853	-276.708649	271.911194	-1.351661	-308.319092	70.318001	-97.650970	-356.130798	61.351620	-156.022751	-178.877869	46.445827	-117.825790	-264.192566	676.361328	-444.572113	-233.325134	469.657257	-343.300598	-274.230774	287.088379	-403.221405	-322.649689	65.346733	-315.064392	-363.060516	57.938656	-261.568085	-184.234543	44.645592	-303.680664
85	0.84000000	-284.806854	1354.329834	-24.735624	-274.089020	1361.217407	-379.763519	-341.753815	1425.371704	-210.861252	-192.169632	1331.980225	-200.712921	-301.594513	1044.109009	59.025093	-324.439728	1051.473389	-452.658783	-216.708862	806.377106	92.576077	-265.731232	811.215698	-505.375336	-176.833206	909.411194	-57.019905	-163.986862	907.946167	-363.722839	-393.631439	964.309875	-148.241592	-395.660400	957.077148	-259.833923	-394.645920	960.693512	-204.037758	-376.876923	1118.451416	-207.632614	-84.710327	1084.107666	-208.931427	-225.457718	704.448547	34.136196	-235.041534	469.761047	-47.421646	-276.707520	271.962463	-1.264373	-308.337036	70.349709	-97.621414	-356.138763	61.385693	-156.005341	-178.956802	46.490051	-117.853775	-264.231201	676.330872	-444.568939	-233.351242	469.643372	-343.264832	-273.914368	286.967804	-403.061005	-322.656128	65.371796	-315.020294	-362.872223	57.693626	-261.591156	-184.205124	44.657284	-303.709900
